<svg width="64" height="100" viewBox="0 0 64 100" fill="none" xmlns="http://www.w3.org/2000/svg">
<path d="M31.5019 0H32.4358L33.1829 0.190718L33.7432 0.508582L34.179 1.01716L34.3658 1.65289L34.428 2.22505L34.4903 34.9015L34.677 38.0165L34.9883 40.8137L35.2996 42.6573L35.7977 45.0731L36.2335 46.9803L37.0428 49.7139L37.6654 51.6211L38.3502 53.4011L38.9105 54.6726L39.4086 55.8169L40.4047 57.9784L41.4008 60.0127L41.8366 60.7756L42.2101 61.4749L42.4591 61.7928L42.6459 61.8563H43.3307L43.642 61.7928L46.1946 61.7292L47.1284 61.5385L48 61.2206L48.9339 60.712L49.7432 59.9491L50.2412 59.1227L50.4903 58.4234L50.6148 57.9148V56.5162L50.3658 55.499L49.8054 54.2912L49.2451 53.5919L48.3735 53.0197L46.8171 52.3204L46.1946 51.939L45.6965 51.494L45.2607 50.6675V49.7139L45.6342 46.5989L46.0078 43.9288L46.6304 39.0973L46.9416 37.0629L47.3774 33.63L47.6265 31.9771L48.1868 29.3071L48.6226 27.6542L49.3074 25.6834L50.1167 23.7762L50.6148 22.7591L51.4241 21.2333L52.2957 19.8347L52.9805 18.8175L53.4786 18.1182L54.2879 17.0375L55.035 16.1475L55.7821 15.321L57.2763 13.7953L57.9611 13.2231L58.8327 12.4603L60.0156 11.5702L60.7626 11.1252L61.1984 10.9981H61.9455L62.6926 11.316L63.3152 11.6974L63.751 12.1424L63.9377 12.7146L64 13.4774V74.4437L63.9377 76.5416L63.8132 77.0502L63.5642 77.4952L63.1284 78.0038L62.6304 78.3217L61.8833 78.4488L60.6381 78.5124H52.1712L50.6148 78.3853L50.2412 78.1945L49.8054 77.7495L49.2451 76.7324L49.1206 76.3509V75.6516L49.3696 75.143L49.8054 74.5073L50.1167 74.1895L50.4903 73.9352L50.8638 73.808L51.4241 73.7444H59.2062V20.7883L59.2685 18.8175L58.7704 19.199L58.3346 19.5804L57.7743 20.2797L56.965 21.2969L56.3424 22.3141L55.5331 23.5855L54.786 24.9841L54.1012 26.4463L53.4163 28.2263L53.0428 29.4342L52.607 31.405L52.2957 33.1214L51.9844 35.1558L51.4241 39.5423L51.0506 42.2123L50.677 45.1367L50.3035 47.9975V48.506L51.0506 49.0146L52.1089 49.7775L53.2296 50.9218L53.9767 52.0025L54.537 53.0197L55.035 54.2912L55.3463 55.4355L55.4708 56.1984V57.597L55.284 58.932L54.9105 60.2034L54.5992 60.9663L53.7899 62.3649L53.2296 63.1278L52.5447 63.8907L51.9222 64.4628L51.0506 65.035L49.8677 65.6707L48.8093 66.0521L47.0039 66.4971L45.9455 66.6243H44.0778L44.3268 67.3236L44.7004 69.6122L44.8872 71.3287L44.9494 72.2187V74.5709L44.7626 76.9867L44.5136 78.5124L43.8911 81.0553L43.3307 82.7082L42.6459 84.4247L41.7121 86.3319L40.9027 87.7305L40.2802 88.8112L39.8444 89.5105L38.9728 90.9727L38.0389 92.4348L37.4786 93.452L36.856 94.4056L36.2957 95.2956L35.7977 96.1221L34.9261 97.5207L34.2412 98.6014L33.6187 99.4279L33.0584 99.8093L32.4981 100H31.8755L31.1284 99.7457L30.5681 99.3007L29.9455 98.5378L29.1362 97.3299L28.3891 96.1221L27.4553 94.5963L26.6459 93.2613L25.7743 91.8627L24.8405 90.3369L24.0311 89.0019L23.035 87.2854L22.2257 85.8233L21.4786 84.2975L20.7938 82.5811L20.1089 80.4832L19.7354 78.8938L19.4864 77.4952L19.2996 75.9695L19.1751 74.1259V72.6001L19.2996 70.8837L19.6732 68.3408L19.9222 66.9422V66.4971L19.4864 66.5607L19.1128 66.6243H17.4942L15.8755 66.3064L14.5681 65.8614L13.3852 65.2893L12.5759 64.7171L11.9533 64.2085L10.9572 63.1914L10.2101 62.1106L9.64981 61.0935L9.15175 59.8856L8.77821 58.5505L8.6537 57.5334V56.3255L8.77821 55.3083L9.27626 53.719L9.77432 52.7018L10.3346 51.6847L10.8327 50.9854L11.5798 50.1589L12.4514 49.4596L13.323 48.8875L13.821 48.506L13.7588 47.5525L13.2607 43.4202L12.6381 39.0337L12.0778 34.8379L11.5798 31.7228L11.2685 30.2607L10.8327 28.6078L10.0856 26.5734L9.27626 24.7934L8.6537 23.6491L7.7821 22.2505L7.03502 21.1697L6.53696 20.534L5.72763 19.5168L5.29183 19.0718V18.9447H5.16732L4.91829 18.6904V41.068L4.98054 73.6809L11.0817 73.7444L12.1401 73.808L12.7626 73.9987L13.323 74.3166L13.6965 74.6345L14.07 75.2702L14.1323 75.5245V76.6688L13.7588 77.4317L13.0739 78.1945L12.6381 78.3853L12.2646 78.4488L10.9572 78.5124H3.79767L2.49027 78.4488L1.68093 78.3217L1.18288 78.131L0.684825 77.6224L0.311284 76.8595L0.18677 76.3509L0.0622568 73.1723L0 69.2308V33.3121L0.124514 13.4774L0.249027 12.651L0.622568 11.8881L1.05837 11.4431L1.61868 11.1252L2.11673 10.9981H2.61479L3.42412 11.2524L4.29572 11.761L5.16732 12.3967L6.16342 13.2231L7.03502 13.986L7.65759 14.5582L7.96887 14.8125L8.40467 15.321L9.02724 15.9568L9.58755 16.6561L10.2724 17.4825L11.144 18.6904L12.1401 20.2161L12.7004 21.1697L13.323 22.3141L13.9455 23.5219L14.7549 25.4291L15.2529 26.8913L15.6887 28.2263L16.0623 29.7521L16.6226 32.74L17.0584 35.7915L17.5564 39.6059L17.93 42.2759L18.4903 46.6624L18.8016 49.0146L18.8638 50.0954V50.7947L18.6148 51.3032L18.3035 51.6211L17.6187 52.1297L16.3113 52.7654L15.3152 53.274L14.8171 53.719L14.2568 54.3547L13.6965 55.6262L13.5097 56.4526L13.4475 57.0884L13.572 58.1055L13.8833 58.932L14.1946 59.5677L14.6926 60.2034L15.2529 60.712L16 61.157L16.9339 61.5385L17.7432 61.7292L18.4903 61.7928H19.8599L21.4786 61.8563L21.7899 61.6656L22.1012 61.2842L22.537 60.3942L23.0973 59.377L23.7198 58.042L24.9027 55.6262L25.7121 53.6554L26.3346 52.0025L27.0195 50.0318L27.7665 47.4889L28.2646 45.4545L28.8249 42.8481L29.1362 40.8137L29.4475 38.0801L29.572 36.1729L29.6342 34.5836L29.6965 2.16148L29.821 1.20788L30.0078 0.826446L30.5058 0.44501L31.2529 0.0635728L31.5019 0ZM31.9377 50.0318L31.6887 50.6675L31.1284 52.5747L30.6304 54.0369L29.8833 55.8805L29.323 57.2155L28.9494 57.9784L28.4514 59.1227L27.2062 61.6656L26.7082 62.5556L26.5837 62.8735L26.6459 63.1914L27.9533 64.0178L29.0739 64.7807L29.6965 65.2893L31.0661 66.6879L31.4397 67.1964L31.6887 67.5143L32.1245 67.8322L32.4358 67.5143L32.8716 66.9422L33.4942 66.2429L33.9922 65.7978L34.5525 65.2257L35.4241 64.5264L36.2957 63.9542L37.2918 63.3185L37.5409 63.0006L37.4786 62.6828L36.7315 61.2206L35.8599 59.4406L35.0506 57.6605L34.4903 56.3891L33.8677 54.9269L33.1829 53.0197L32.4981 51.049L32.0623 50.0318H31.9377ZM24.6537 67.7686L24.4669 68.4043L24.0934 70.3115L23.9066 72.2823V74.4437L24.0311 76.0331L24.2802 77.6224L24.6537 79.1481L25.1518 80.801L25.7743 82.2632L26.2101 83.2804L26.9572 84.6154L27.7665 86.014L28.7004 87.5397L29.2607 88.4298L30.0078 89.6376L30.6926 90.782L31.5642 92.3077L31.9377 92.7527L32.1245 92.8163L32.6226 92.2441L33.3074 91.0998L33.8054 90.3369L34.428 89.2562L34.8638 88.5569L35.3619 87.7305L36.1712 86.459L36.856 85.3147L37.1673 84.7425L37.7276 83.7254L38.2257 82.7082L38.9105 81.1189L39.4086 79.466L39.8444 77.6224L40.0934 75.9059L40.2179 74.1259V73.1087L40.0934 71.138L39.7198 68.5315L39.5331 67.9593L39.0973 67.8957L38.2257 68.3408L37.5409 68.9765L37.0428 69.4215L36.2957 70.3115L35.9222 70.8201L35.2996 71.8373L34.9883 72.6001L34.6148 73.9352L34.4903 74.9523L34.428 76.5416V80.0381L34.3035 81.1189L33.9922 81.8818L33.5564 82.3903L32.8716 82.8354L32.6226 82.9625H31.8755L31.0661 82.7082L30.4436 82.3268L30.1323 81.9453L29.821 81.1825L29.7588 80.8646L29.6965 79.911V75.0159L29.5097 73.808L28.9494 72.0915L28.4514 71.138L27.8288 70.2479L27.144 69.4851L26.3346 68.6586L25.3385 67.9593L24.965 67.7686H24.6537Z" fill="white"/>
</svg>
