<svg width="30" height="30" viewBox="0 0 30 30" fill="none" xmlns="http://www.w3.org/2000/svg">
<path fill-rule="evenodd" clip-rule="evenodd" d="M8.66211 1.40867C14.8815 -1.49142 22.0703 0.240986 26.3445 5.18637L27.3427 6.34138L23.2797 8.236L22.7079 7.6373C21.2452 6.1058 19.3694 5.06298 17.3466 4.60499C17.3586 4.69846 17.3594 4.79493 17.3475 4.89277L16.8514 8.97122C19.3746 9.76988 21.2034 12.1301 21.2034 14.9173C21.2034 18.2256 18.6271 20.9321 15.3713 21.1402L14.8932 25.0718C14.8663 25.2924 14.7789 25.4908 14.6496 25.6525C16.2723 25.7071 17.9318 25.3905 19.5035 24.6576C23.7532 22.676 26.0841 18.2469 25.5948 13.8282L25.5037 13.0054L29.5668 11.1109L29.81 12.618C30.851 19.0709 27.5574 25.6913 21.3379 28.5913C15.1185 31.4914 7.92971 29.759 3.65553 24.8136L2.65729 23.6586L6.72034 21.764L7.29212 22.3627C8.76468 23.9046 10.656 24.9511 12.6946 25.4043C12.6114 25.219 12.576 25.0095 12.6023 24.7932L13.0804 20.8625C10.5588 20.0629 8.73155 17.7035 8.73155 14.9173C8.73155 11.6102 11.3061 8.90438 14.5603 8.69466L15.0566 4.61416C15.0682 4.51903 15.091 4.42803 15.1236 4.34231C13.5735 4.32327 11.9951 4.64364 10.4965 5.34242C6.24684 7.32402 3.91593 11.7532 4.40516 16.1718L4.49627 16.9946L0.43319 18.8892L0.19004 17.3821C-0.85104 10.9291 2.44267 4.30874 8.66211 1.40867ZM14.2738 11.0503C12.4352 11.3778 11.0392 12.9846 11.0392 14.9173C11.0392 16.5168 11.9953 17.893 13.3671 18.5058L14.2738 11.0503ZM15.6578 18.785C17.4981 18.4588 18.8957 16.8513 18.8957 14.9173C18.8957 13.3167 17.9382 11.9396 16.5648 11.3276L15.6578 18.785Z" fill="white"/>
</svg>
